<svg id="Layer_1" enable-background="new 0 0 53 53" height="512" viewBox="0 0 53 53" width="512" xmlns="http://www.w3.org/2000/svg"><g><g><g><path d="m25.1246262 30.0965691c-.1494141 0-.300293-.0449219-.4311523-.1367188-1.6606445-1.1689453-3.5126953-2.5976563-4.4765625-4.7558594-.2675781-.6005859-.5761719-1.4951172-.1645508-2.3300781.3955078-.8046875 1.1928711-1.0712891 1.8339844-1.2861328.3217773-.1083984.6254883-.2099609.8383789-.3564453.3696289-.2558594.5917969-.8046875.5522461-1.3642578-.0380859-.5302734-.2817383-1.1142578-.7246094-1.7353516-.3642578-.5097656-.9541016-1.15625-1.6962891-1.3427734-.5273438-.1367188-1.2436523.0517578-1.4648438.5410156-.0898438.1982422-.1196289.4716797-.1518555.7607422-.0493164.4521484-.105957.9658203-.4033203 1.4462891-.4487305.7255859-1.3481445 1.1552734-2.3061523 1.0664063-.8623056-.0693359-1.5854502-.4990234-2.0542002-.8164063-1.3066406-.8828125-2.0063477-2.0410156-2.6108398-3.1513672-.1621094-.296875-.1044922-.6660147.1401367-.9003897l10.468751-10.0214849c.6611328-.6337891 1.4848633-1.4238281 2.5800781-1.7324216 2.2719727-.6337891 4.3364258 1.0283201 5.8852539 2.550781l7.1376953 7.0175786c1.1352539 1.1152344 1.1323242 2.624999-.0073242 3.8457022-.5244141.5605469-1.2070313.8466797-1.8100586 1.0996094l-.1328125.0556641c-.4741211.2001953-1.0009766.4462891-1.2543945.8291016-.0976563.1474609-.1386719.3613281-.1020508.5302734.012207.0576172.0390625.1328125.0952148.1679688.1113281.0703125.3457031.0742188.5942383.078125.2348633.0039063.5019531.0087891.7783203.0683594 1.4433594.3134766 2.1567383 1.9189453 1.9897461 3.2275391-.1557617 1.2216797-.8837891 2.2373047-1.4682617 3.0537109-.5830078.8144531-1.309082 1.828125-2.4472656 2.3271484-.7304688.3193359-1.5986328.3300781-2.3251953.03125-.5927734-.2451172-1.0395508-.6835938-1.2573242-1.2363281-.2202148-.5595703-.1879883-1.1425781-.159668-1.65625.0302734-.5488281.0371094-.8925781-.1279297-1.0361328-.1230469-.1083984-.4106445-.0947266-.6401367.0292969-.3369141.1806641-.6274414.5419922-.9086914.8916016l-3.1835938 3.9599609c-.1474609.1835936-.3647461.2802733-.5849609.2802733zm-4.6416016-14.8544913c.2441406 0 .4926758.0302734.7392578.0917969.9501953.2392578 1.8085938.8876944 2.5507813 1.9267569.6054688.8486328.9418945 1.6894531 1 2.5.0786133 1.1044922-.3798828 2.140625-1.1958008 2.7050781-.3876953.2666016-.8266602.4140625-1.2143555.5439453-.5258789.1767578-.8530273.2998047-.9648438.5263672-.0996094.203125-.0380859.5488281.1889648 1.0566406.7060547 1.5820313 2.0668945 2.7568359 3.3979492 3.7314453l2.7392578-3.4072266c.340332-.4228516.7636719-.9501953 1.3701172-1.2744141.796875-.4257813 1.7338867-.3613281 2.3339844.1621094.7290039.6367188.6791992 1.53125.6396484 2.25-.0219727.3955078-.0429688.7685547.0571289 1.0234375.0688477.1748047.2148438.3085938.434082.3994141.3466797.1425781.7993164.1367188 1.1508789-.0185547.7045898-.3085938 1.2241211-.9804688 1.8295898-1.8261719.5117188-.7148438 1.0917969-1.5244141 1.199707-2.3701172.0820313-.6416016-.234375-1.4453125-.8193359-1.5712891-.1567383-.0341797-.3222656-.0322266-.4863281-.0351563-.4008789-.0068359-.8999023-.0146484-1.3652344-.3066406-.3886719-.2441406-.6601563-.6425781-.7641602-1.1210938-.1225586-.5644531-.0039063-1.1904297.3164063-1.6757813.4614258-.6972656 1.1962891-1.0771484 1.921875-1.3828125l.137207-.0576172c.5083008-.2138672.9892578-.4150391 1.293457-.7402344.8779297-.9404287.2563477-1.5517569.0522461-1.7519522l-7.1381836-7.0175786c-1.3383789-1.3154297-2.909668-2.6035156-4.4267578-2.1777344-.734375.2070313-1.3798828.8261719-1.9492188 1.3720703l-10.0493174 9.6201172c.5375977.921875 1.059082 1.5908203 1.8535156 2.1279297.5229492.3535156.9472666.5322266 1.3354502.5644531.3842773.0253906.7587891-.1181641.909668-.3613281.1186523-.1923828.1508789-.4833984.1879883-.8212891.0410156-.375.0878906-.8007813.2763672-1.2158203.4106448-.9072257 1.3959964-1.4687492 2.4580081-1.4687492z"/></g></g><g><g><path d="m14.9747229 49.1571159c-.1357422 0-.2724609-.0068359-.4106445-.0205078-1.3725586-.1386719-2.4838867-.9736328-3.4179688-1.7451172-3.2504878-2.6875-5.7202144-5.2402344-7.7553706-8.0166016-.6010742-.2753906-1.0791016-.8212891-1.3056641-1.5068359-.2573243-.7783203-.1464845-1.6064453.2958984-2.2158203.4335938-.5986328 1.0581055-.9111328 1.6083984-1.1875.1694336-.0849609.3388672-.1699219.5-.2626953.456543-.265625.7724609-.6914063.6894531-.9316406-.0766602-.2226563-.4541016-.3925781-.8535156-.5732422-.1801758-.0810547-.3588867-.1621094-.5253906-.2509766-1.4931641-.7998047-2.3359375-2.6591797-1.9599611-4.3261719.3715822-1.6494141 1.8735353-2.9609375 3.5712891-3.1201172 1.6855469-.1484375 3.3725581.7998047 4.1191401 2.3300781l.0600586.125c.0449219.0966797.1113281.2363281.1557617.2910156.0136719-.0283203.1831055-.1005859.4697266-.4003906l3.6948242-3.8681641c.2724609-.2851563.7211914-.3085938 1.0229492-.0576172.8798828.7353516 1.6723642 1.5800781 2.4384775 2.3984375.7695313.8212891 1.4960938 1.5966797 2.3051758 2.2714844.2216797.1845703.6357422.5292969.7304688 1.0810547.1835938 1.0761719-.8549805 1.6132813-1.4130859 1.9013672l-.1157227.0595703c-.6572266.3447266-1.0849609 1.1171875-1.1166992 2.015625s.3408203 1.6982422.972168 2.0888672c.6313477.3896484 1.5136719.3652344 2.3032227-.0644531.7895508-.4306641 1.2885742-1.1591797 1.3027344-1.9013672.0053711-.2841797.1713867-.5410156.4287109-.6630859.2578125-.1230469.5615234-.0878906.7851563.0878906l2.6206055 2.0615234c.8720703.6865234 1.4223633 1.7148438 1.5102539 2.8212891.0874023 1.1064453-.2753906 2.1601563-1.0229492 2.9697266-2.3076172 2.5-4.8588867 4.8007813-7.5820313 6.8388672-1.2392577.9267578-2.5893554 1.7705078-4.1054696 1.7705078zm-9.2036128-22.6738281c-.0732422 0-.1464844.0039063-.2197266.0107422-1.0527344.0976563-2.019043.9394531-2.2485352 1.9560547-.2290039 1.0146484.3007762 2.1894531 1.2055664 2.6738281.137207.0732422.2851563.1396484.4326172.2060547.609375.2744141 1.3676758.6162109 1.6557617 1.4501953.3842773 1.1123047-.4033203 2.1669922-1.3549805 2.71875-.1875.1083984-.3833008.2080078-.5795898.3066406-.4360352.21875-.8476563.4248047-1.0673828.7275391-.159668.2197266-.1914063.5429688-.0854492.8642578.1064453.3222656.3242188.5625.5834961.6435547.1542969.0488281.2885742.1455078.3828125.2763672 1.9833984 2.7392578 4.4067378 5.2558594 7.6259761 7.9179688.7636719.6308594 1.6591797 1.3125 2.6137695 1.4091797 1.1738281.1259766 2.3588877-.6308594 3.4663095-1.4589844 2.6499023-1.9824219 5.1323242-4.2216797 7.378418-6.6552734.4604492-.4980469.6835938-1.1494141.6293945-1.8330078-.0546875-.6914063-.3984375-1.3330078-.9423828-1.7617188l-1.7016602-1.3378906c-.3432617.7685547-.9682617 1.4433594-1.7900391 1.890625-1.2612305.6875-2.7202148.6982422-3.8095703.0234375-1.0883789-.671875-1.7329102-1.9814453-1.6826172-3.4179688.0507813-1.4355469.7861328-2.6962891 1.9194336-3.2900391l.1235352-.0644531c.1655273-.0859375.4506836-.2324219.5810547-.3447266-.0556641-.0566406-.1367188-.1240234-.1699219-.1523438-.8808594-.7353516-1.6733398-1.5800781-2.4394531-2.3984375-.599122-.6396484-1.1728525-1.2509766-1.7792978-1.8095703l-3.1982422 3.3476563c-.987793 1.0351563-1.7700195.9501953-2.2524414.6972656-.4648438-.2431641-.6669922-.6708984-.8144531-.9833984l-.050293-.1064453c-.4389643-.8994141-1.4277338-1.5058594-2.4121088-1.5058594zm3.9877924 1.2773438h.0102539z"/></g></g><g><g><path d="m38.8023605 43.5955925c-.2138672 0-.4189453-.0917969-.5620117-.2529297-2.9628906-3.3515625-6.4301758-6.8740234-10.5996094-10.7695313-.3022461-.2822266-.3183594-.7568359-.0356445-1.0595703s.7573242-.3193359 1.0600586-.0361328c3.9311523 3.6728516 7.246582 7.0205078 10.1088867 10.2089844.3881836-.3916016.8266602-.7128906 1.2314453-1.0087891l.1162109-.0849609c.5693359-.4179688 1.1474609-.875 1.4077148-1.4521484.1855469-.4121094.15625-1.0263672-.1835938-1.2490234-.1796875-.1181641-.4707031-.1611328-.7788086-.2070313-.4213867-.0634766-.8994141-.1347656-1.3452148-.4140625-.7524414-.4707031-1.1665039-1.4443359-1.0302734-2.4228516.0966797-.6943359.4345703-1.3720703 1.0336914-2.0732422.8066406-.9423828 1.7387695-1.5117188 2.6958008-1.6474609 1.3237305-.1875 2.609375.5361328 2.996582 1.6787109.1025391.3027344.1323242.5966797.1582031.8554688.0131836.1318359.0253906.2636719.0517578.3935547.0356445.1757813.1108398.2880859.1430664.3095703.0043945-.0078125.105957-.0292969.3979492-.234375 1.4658203-1.0351563 2.6352539-2.5644531 3.7666016-4.0449219l.0053711-.0068359-3.2211913-2.3964844c-.2661133-.1982422-.6293945-.4697266-.8198242-.9277344-.1650391-.3955078-.159668-.8251953.0161133-1.2412109.2275391-.5371094.7451172-1.0195313 1.3510742-1.2578125.2553711-.1005859.5234375-.171875.7919922-.2412109.3676758-.0947266.6855469-.1767578.9145508-.3408203.4936523-.3515625.5605469-1.1220703.3730469-1.6679688-.2060547-.6025391-.6762695-1.1689453-1.4794922-1.7832031-.6459961-.4960938-1.1464844-.7382813-1.6225586-.7871094-.4155273-.0400391-.9394531.1318359-1.0947266.4980469-.0493164.1171875-.0717773.2431641-.0986328.3691406-.0463867.2158203-.0991211.4609375-.2172852.7128906-.2412109.5107422-.6923828.8925781-1.2709961 1.0771484-.7084961.2246094-1.5576172.1328125-2.2172852-.2392578-.8730469-.4941406-1.4311523-1.3125-1.9233398-2.0341797l-.1757813-.2568359c-.2358398-.3408203-.1508789-.8076172.1899414-1.0439453.3398438-.2353516.8066406-.1494141 1.043457.1904297l.1821289.265625c.4384766.6435547.8530273 1.2509766 1.4213867 1.5722656.2988281.1699219.7109375.2158203 1.0253906.1162109.1816406-.0576172.3056641-.1542969.3681641-.2871094.0444336-.0947266.0751953-.2373047.1074219-.3876953.0463867-.2177734.0976563-.4355469.1845703-.6396484.4008789-.9453125 1.4819336-1.5195313 2.6289063-1.4052734.984375.1005859 1.7900391.6347656 2.3818359 1.0888672 1.0483398.8017578 1.6796875 1.5927734 1.9858398 2.4873047.434082 1.265625.046875 2.6855469-.9204102 3.375-.4550781.3251953-.9628906.4570313-1.4106445.5722656-.2094727.0546875-.4194336.1074219-.6186523.1855469-.2250977.0878906-.4482422.2802734-.5180664.4462891.0195313.1582031.206543.2978516.3183594.3818359l3.8310547 2.8496094c.1616211.1201172.2680664.2998047.2954102.4990234.0273438.2001953-.0268555.4023438-.1499023.5615234l-.4658203.6064453c-1.1992188 1.5693359-2.4394531 3.1914063-4.0947266 4.3603516-.2734375.1933594-.9082031.6435547-1.6401367.4570313-.6176758-.1533203-1.0791016-.6992188-1.2338867-1.4599609-.0361328-.1777344-.0561523-.359375-.0742188-.5410156-.0200195-.1982422-.0390625-.3847656-.0869141-.5263672-.1674805-.4951172-.8388672-.7392578-1.3657227-.6748047-.7451172.1064453-1.371582.6777344-1.765625 1.1376953-.4072266.4765625-.6323242.9033203-.6884766 1.3056641-.0541992.3896484.0893555.7871094.3413086.9443359.1811523.1132813.4677734.15625.7709961.2021484.4335938.0644531.925293.1376953 1.3798828.4365234 1.0698242.7021484 1.1733398 2.1308594.7275391 3.1201172-.409668.9082031-1.1889648 1.53125-1.887207 2.0439453l-.1176758.0869141c-.5805664.4248047-1.1289063.8261719-1.4501953 1.3496094-.1245117.2021484-.3374023.3339844-.5742188.3544922-.0214842.001953-.0434569.0029296-.0649413.0029296z"/></g></g></g></svg>